<svg viewBox="0 0 100 92" fill="none" xmlns="http://www.w3.org/2000/svg">
  <rect x="0"  y="2"  width="3" height="86" fill="#4A8C5C"/>
  <rect x="5"  y="10" width="3" height="78" fill="#4A8C5C"/>
  <rect x="10" y="18" width="3" height="70" fill="#4A8C5C"/>
  <rect x="15" y="27" width="3" height="61" fill="#4A8C5C"/>
  <rect x="20" y="36" width="3" height="52" fill="#4A8C5C"/>
  <rect x="25" y="46" width="3" height="42" fill="#4A8C5C"/>
  <rect x="30" y="56" width="3" height="32" fill="#4A8C5C"/>
  <rect x="35" y="65" width="3" height="23" fill="#4A8C5C"/>
  <rect x="40" y="73" width="3" height="15" fill="#4A8C5C"/>
  <rect x="45" y="80" width="3" height="8"  fill="#4A8C5C"/>
  <rect x="97" y="2"  width="3" height="86" fill="#4A8C5C"/>
  <rect x="92" y="10" width="3" height="78" fill="#4A8C5C"/>
  <rect x="87" y="18" width="3" height="70" fill="#4A8C5C"/>
  <rect x="82" y="27" width="3" height="61" fill="#4A8C5C"/>
  <rect x="77" y="36" width="3" height="52" fill="#4A8C5C"/>
  <rect x="72" y="46" width="3" height="42" fill="#4A8C5C"/>
  <rect x="67" y="56" width="3" height="32" fill="#4A8C5C"/>
  <rect x="62" y="65" width="3" height="23" fill="#4A8C5C"/>
  <rect x="57" y="73" width="3" height="15" fill="#4A8C5C"/>
  <rect x="52" y="80" width="3" height="8"  fill="#4A8C5C"/>
  <polygon points="1,42 46,2 50,88" fill="#C9A24E"/>
  <polygon points="54,2 99,42 50,88" fill="#9A7428"/>
</svg>
