<svg viewBox="0 0 100 90" fill="none" xmlns="http://www.w3.org/2000/svg">
  <defs>
    <linearGradient id="gl" x1="0" y1="0" x2="50" y2="0" gradientUnits="userSpaceOnUse">
      <stop offset="0%"   stop-color="#D4B868"/>
      <stop offset="55%"  stop-color="#EDD890"/>
      <stop offset="100%" stop-color="#B89040"/>
    </linearGradient>
    <linearGradient id="gr" x1="50" y1="0" x2="100" y2="0" gradientUnits="userSpaceOnUse">
      <stop offset="0%"   stop-color="#9A7428"/>
      <stop offset="45%"  stop-color="#C09848"/>
      <stop offset="100%" stop-color="#785018"/>
    </linearGradient>
    <linearGradient id="gc" x1="0" y1="0" x2="0" y2="90" gradientUnits="userSpaceOnUse">
      <stop offset="0%"   stop-color="#F0DC98"/>
      <stop offset="100%" stop-color="#C8A050"/>
    </linearGradient>
  </defs>

  <!-- V faces (drawn first, bars appear on top) -->
  <polygon points="0,22 44,0 50,88"  fill="url(#gl)"/>
  <polygon points="44,0 56,0 50,88"  fill="url(#gc)"/>
  <polygon points="56,0 100,22 50,88" fill="url(#gr)"/>

  <!-- Green bars (#427938) drawn over V — left side (12 bars, outer=tall, inner=short) -->
  <rect x="0"  y="2"  width="2.5" height="86" fill="#427938"/>
  <rect x="4"  y="9"  width="2.5" height="79" fill="#427938"/>
  <rect x="8"  y="17" width="2.5" height="71" fill="#427938"/>
  <rect x="12" y="25" width="2.5" height="63" fill="#427938"/>
  <rect x="16" y="33" width="2.5" height="55" fill="#427938"/>
  <rect x="20" y="41" width="2.5" height="47" fill="#427938"/>
  <rect x="24" y="49" width="2.5" height="39" fill="#427938"/>
  <rect x="28" y="57" width="2.5" height="31" fill="#427938"/>
  <rect x="32" y="64" width="2.5" height="24" fill="#427938"/>
  <rect x="36" y="71" width="2.5" height="17" fill="#427938"/>
  <rect x="40" y="77" width="2.5" height="11" fill="#427938"/>
  <rect x="44" y="82" width="2.5" height="6"  fill="#427938"/>

  <!-- Green bars — right side (mirror) -->
  <rect x="97.5" y="2"  width="2.5" height="86" fill="#427938"/>
  <rect x="93.5" y="9"  width="2.5" height="79" fill="#427938"/>
  <rect x="89.5" y="17" width="2.5" height="71" fill="#427938"/>
  <rect x="85.5" y="25" width="2.5" height="63" fill="#427938"/>
  <rect x="81.5" y="33" width="2.5" height="55" fill="#427938"/>
  <rect x="77.5" y="41" width="2.5" height="47" fill="#427938"/>
  <rect x="73.5" y="49" width="2.5" height="39" fill="#427938"/>
  <rect x="69.5" y="57" width="2.5" height="31" fill="#427938"/>
  <rect x="65.5" y="64" width="2.5" height="24" fill="#427938"/>
  <rect x="61.5" y="71" width="2.5" height="17" fill="#427938"/>
  <rect x="57.5" y="77" width="2.5" height="11" fill="#427938"/>
  <rect x="53.5" y="82" width="2.5" height="6"  fill="#427938"/>
</svg>
